        <svg
                    xmlns="http://www.w3.org/2000/svg"
                    width="34"
                    height="34"
                    viewBox="0 0 15 15"
                    fill="none"
                  >
                    <g clip-path="url(#clip0_1_2)">
                      <path
                        d="M4.5 4.5L7.5 8.5L10.5 4.5M4.5 4.5H3M4.5 4.5V11M10.5 4.5H12M10.5 4.5V11M3 10.5H6M9 10.5H12M1.5 0.5H13.5C13.7652 0.5 14.0196 0.605357 14.2071 0.792893C14.3946 0.98043 14.5 1.23478 14.5 1.5V13.5C14.5 13.7652 14.3946 14.0196 14.2071 14.2071C14.0196 14.3946 13.7652 14.5 13.5 14.5H1.5C1.23478 14.5 0.98043 14.3946 0.792893 14.2071C0.605357 14.0196 0.5 13.7652 0.5 13.5V1.5C0.5 1.23478 0.605357 0.98043 0.792893 0.792893C0.98043 0.605357 1.23478 0.5 1.5 0.5Z"
                        stroke="#000"
                      ></path>
                    </g>
                    <defs>
                      <clipPath id="clip0_1_2">
                        <rect width="15" height="15" fill="white"></rect>
                      </clipPath>
                    </defs>
                  </svg>